<svg xmlns="http://www.w3.org/2000/svg" xmlns:xlink="http://www.w3.org/1999/xlink" width="769" height="1061" viewBox="0 0 769 1061">
  <defs>
    <clipPath id="clip-path">
      <rect id="Rectangle_177" data-name="Rectangle 177" width="769" height="1061" transform="translate(3995 3676)" fill="#fff" stroke="#ff0303" stroke-width="1"/>
    </clipPath>
  </defs>
  <g id="logincard" transform="translate(-3995 -3676)" opacity="0.11" clip-path="url(#clip-path)">
    <g id="Whangaehu" transform="translate(3447.219 4963.996) rotate(-90)">
      <path id="Shape" d="M936.62,596.428c.084-21.76,33.728-46.229,48.1-58.847,28.416-24.952,57.97-47.995,87.249-71.405s58.639-46.757,86.559-72.459c18.128-16.683,39.43-35.474,51.725-59.3,26.192-50.768-56.389-43.229-77.78-44.339-54.418-2.837-116.835-1.541-167.843-27.98-30.45-15.783-42.592-42.252-36.052-80.829,2.109-12.546,8.348-26.983,3.062-39.206-5.644-13.054-18.629-20.587-29.406-25.638-39.308-18.4-84.5-20.536-126.094-22.846-44.848-2.539-90.117-1.8-134.648-1.993-18.882-.083-38.6-8.25-56.584-14.888-23.573-8.7-46.864-18.473-70.243-27.923C463.234,28.04,410.236,6.2,355.827.932c-34.075-3.3-71.319,1.161-97.789,29.864C244.748,45.2,237.791,66.632,230.108,85.663c-9.3,22.991-18.234,46.205-28.136,68.836-31.9,72.884-77.442,144.105-151.364,147.684-11.183.539-22.166-1.218-33.3-1.549-7.088-.2-13.4,1.859-16.031,10.787-6.624,22.4,14.2,57.749,22.734,75.518,18.692,38.9,39.772,76.047,59.517,114.159,13.064,25.207,35.677,59.653,35.915,90.278.211,27.288-29.933,47.011-46.344,60.452-15.378,12.584-43.24,30.195-44.927,55.794-.817,12.413,5.981,22.7,13.08,30.683,12.442,13.961,26.776,23.808,37.97,39.739,18.355,26.133,33.691,62.089,31.2,97.3-1.729,24.4-13.291,40.38-28,55.655-6.181,6.422-11.2,10.966-11.525,21.393-.527,16.557,4.859,34.078,9.295,49.429,15.874,54.936,38.418,108.06,63.5,157.661,12.532,24.787,26.07,49.5,42.687,70.644,10.885,13.884,25.562,30.41,42.159,30.39,19.22,0,39.556-8.351,58.238-14.6,34.9-11.67,69.367-25.161,103.7-39q119.1-48.033,235.963-103.847c54.876-26.254,110.917-52.547,162.51-87.451a186.028,186.028,0,0,0,28.363-23.867c9.407-9.477,21.08-13.715,32.916-16.874,73.463-19.616,153.947-4.557,227.715,4.886,18.724,2.393,37.448,4.8,56.225,6.472,16.142,1.441,35.468,5.572,51.156-.635,30.914-12.216,3.889-57.241-7.536-75.585-40.225-64.6-92.125-119.248-140.228-175.042-22.872-26.571-45.917-53.072-67.546-81.146C958.753,639.239,936.547,615.5,936.62,596.428Z" transform="translate(1478.55 1650.388) rotate(180)" fill="none" stroke="#fff" stroke-miterlimit="10" stroke-width="2"/>
      <path id="Shape-2" data-name="Shape" d="M882.152,548.847c12.33-23.026,33.962-40.045,51.919-56.062,25.841-23.058,52.494-44.834,78.745-67.238,24.823-21.188,49.7-42.614,72.686-66.674,14.017-14.672,31.6-32.217,38.244-53.917,14.4-47.035-63.077-39.9-82.2-41.13-47.552-3.045-101.46-3.742-145.456-28.508-27.47-15.465-38.756-41.11-32.9-76.715,2.025-12.319,5.674-22.836,1.055-35.09-5.343-14.183-17.629-23.026-28.894-29.268-35.285-19.556-76.994-23.711-115.243-27.168-39.515-3.571-80.684-6.087-118.93-3.477-15.293,1.04-32.9-4.865-48.035-9.395-23.288-6.978-46.339-15.025-69.514-22.512C436.533,16.47,388.217,1.8,339.226.136c-35.37-1.2-72.248,5.328-101.675,30.581-29.822,25.607-43.054,65.3-59.6,103.039C149.394,199,110.818,278.317,44.74,292.1c-10.019,2.093-19.649.958-29.658,1.472-5.147.26-11.006,1.085-13.616,7.193-6.776,15.858,11.794,44.853,18.043,57,17.265,33.568,36.678,65.492,54.771,98.415,14.372,26.14,32.585,55.186,38.144,86.172,6.745,37.6-37.326,64.358-52.826,90.835C32.729,679.1,83.635,705.26,108.732,727.15c28.821,25.132,52.609,70.981,26.774,109.864-9.883,14.871-22.044,23.731-26.458,43.134-6.9,30.346-1.682,65.024,3.919,95.021,8.435,45.094,21.792,89.7,39.942,130.455,13,29.178,34.579,74.932,66.173,71.5,21.268-2.29,42.89-10.657,63.6-18.053,31.008-11.069,61.626-23.686,92.082-36.791,70.31-30.164,139.837-63.428,208-100.016C629.268,997.293,759,895.236,768.759,891.6c29.1-10.847,62.2-8.937,92.2-7.256,39.912,2.234,79.631,8.018,119.315,13.378,18.89,2.537,37.875,5.639,56.861,6.889,13.512.888,31.266,1.65,43.106-7.808,23.109-18.453-2.637-60.673-13.284-78.535C1034.344,763.5,993.083,716.08,954.4,667.593c-18.985-23.808-38.26-47.574-55.494-73.29C891.956,583.919,874.532,563.068,882.152,548.847Z" transform="translate(1437.943 1606.475) rotate(180)" fill="none" stroke="#fff" stroke-miterlimit="10" stroke-width="2"/>
      <path id="Shape-3" data-name="Shape" d="M837.709,510.859c33.672-46.075,77.391-80.814,117.5-119.3,20.132-19.321,33.029-46.427,50.393-69.438,9.032-11.966,20.308-27.1,22.051-43.781,4.651-44.624-65.183-38.59-86.084-40.284-40.41-3.287-86.063-5.779-122.724-28.552-22.4-13.921-33.429-36.769-29.243-66.8,1.856-13.325,4.746-24.644,0-37.727-4.809-13.252-14.827-22.607-24.972-29.618C735.478,55.2,699.249,48.749,666.425,43.946a659.722,659.722,0,0,0-116.07-6.535C516.4,38.483,482.6,26.421,449.45,18.47,405.527,7.944,360.809-1.25,315.863.139c-35.5,1.1-71.273,9.778-101.616,32.829-30.836,23.477-49.375,58.615-66.09,96.532C122.89,186.825,91.4,263.634,35.968,285.4c-8.062,3.172-15.576,3.521-23.891,4.074-4.039.267-9.254.349-11.257,5.419-4.822,12.209,13,35.876,17.967,44.121,15.871,26.335,33.074,51.48,49.343,77.464,15.185,24.257,31.727,49.536,41.162,77.961,15.012,45.272-32.981,71.742-31.633,114.88C78.5,636.1,99.8,655.31,116.677,668.6c20.776,16.338,50.691,27.081,61.085,56.9,7.746,22.208-4.408,35.134-13.767,51.984-15.86,28.553-16.941,67.257-15.291,100.308,2.225,44.662,10.92,89.985,25.72,131.037,6.7,18.613,14.916,37.968,27.009,52.425,11.334,13.547,22.059,17.018,37.2,14.245,46.358-8.5,93.165-32.2,137.623-53.368,55.854-26.6,110.94-55.963,164.38-89,36.44-22.531,73.7-46.369,105.688-77.5,8.336-8.115,16.871-16.935,22.969-27.639,4.608-8.045,6.561-14.689,14.332-19.282,23.021-13.61,55.043-10.05,79.709-8.635,39.444,2.252,78.691,8.249,117.89,13.648,22.873,3.172,65.963,13.153,84.228-10.787,15.766-20.672-3.259-55.918-12.977-74.129-24.582-46.052-56.2-86.47-85.541-128.086-13.446-19.073-17.3-30.567-28.407-51.771-1.325-2.524-3.022-5.432-4.618-8.654a33.618,33.618,0,0,1-3.544-10.483C829.488,522.282,833.575,516.54,837.709,510.859Z" transform="translate(1400.442 1572.572) rotate(180)" fill="none" stroke="#fff" stroke-miterlimit="10" stroke-width="2"/>
      <path id="Shape-4" data-name="Shape" d="M773.146,462.236c31.114-40.741,68.6-74.211,102-112.337,14.977-17.094,30.1-35.026,41.514-55.879,6.138-11.214,12.653-25.33,10.964-39.268-4.857-40-62.292-36.391-85.5-38.734-34.478-3.439-74.088-6.907-104.576-28.48-19.971-14.128-27.46-34.994-23.731-61.9,4-28.866-4.946-49.821-25.314-65.925-25.534-20.174-57.767-28.4-87.415-34.238A501.242,501.242,0,0,0,493.018,16.2c-35.191.813-69.285-6.287-104.243-10.9-46.35-6.115-94.187-9.131-140.014,3.4-39.9,10.916-75.939,34.969-102.956,72.166-28.219,38.823-42.189,87.736-65.1,130.687-14.293,26.79-34.221,62.229-60.923,72.643-8.9,3.473-25.139-1.213-18.025,15.872,4.066,9.772,11.676,18.345,17.688,26.333,9.714,12.91,19.75,25.463,29.627,38.195,21.052,27.14,43.6,54.859,59.375,86.993,19.881,40.461-9.672,71.6-6.07,112.628,1.935,22.078,14.684,39.7,28.177,53.542a230.089,230.089,0,0,0,28.029,23.977c10.179,7.571,22.231,13.339,31.11,23.124,12.653,13.925,7.162,30.41,4.789,48.412a467.885,467.885,0,0,0-2.734,95.68c2.89,39.108,9.666,79.335,23.942,114.875,5.553,13.836,12.588,28.508,23.035,37.782s21.253,8.642,33.223,5.848c35.507-8.255,70.941-27.463,104.623-45.668,42.157-22.79,83.486-48.259,122.954-77.234,27.243-20,54.577-41.611,77.369-68.728a154.751,154.751,0,0,0,18.035-25.78c3.5-6.472,5.379-14.82,10.452-19.685,15.873-15.182,47.742-10.649,66.357-9.766,37.153,1.759,73.72,10.122,110.825,12.154,20.251,1.111,51.966,3.9,66.838-16.853,13.986-19.513,1.318-50.247-7.04-69.048-16.427-36.969-38.5-69.906-58.278-104.271-8.132-14.142-17.044-28.937-22.312-45.085C757.088,483.1,765.173,472.681,773.146,462.236Z" transform="translate(1348.89 1520.947) rotate(180)" fill="none" stroke="#fff" stroke-miterlimit="10" stroke-width="2"/>
      <path id="Shape-5" data-name="Shape" d="M720.2,426.692c24.766-35.851,54.622-67.675,79.567-104.109,14.6-21.336,39.747-57.207,28.455-87.287-12.388-33.054-55.57-33.955-80.531-36.618-29.708-3.171-64.594-7.5-90.021-28.141-8.041-6.525-14.891-15.161-17.795-26.536-3.109-12.174.29-22.826.733-35.014.927-25.566-11.75-46.091-28.528-60.187-23.712-19.929-53.363-29.351-81.369-35.92A414.344,414.344,0,0,0,434.4,1.972c-30.889.127-61.451-.7-92.371-1.649-40.437-1.268-81.443.78-120.668,13.709C182.722,26.776,147.591,50.662,120,85.8,93.075,120.083,74.911,161.987,59,204.673,49.976,228.9,34.727,265.107,13.2,277.345c-9.579,5.449-18.976,5.075-8.794,19.24,12.82,17.837,30.1,32.148,44.948,47.4C70.77,366,92.728,388.451,110.707,414.625c11.482,16.714,16.6,32.934,15.808,54.575-.612,16.488-3.383,32.8-1.982,49.351,3.28,38.844,28.7,65.481,51.165,90.286,14.454,15.954,27.653,28.123,35.094,50.815,8.8,26.821,12.5,56,18.374,83.85,6.46,30.581,13.922,62.393,28.022,89.329,12.552,23.981,27.821,34.734,50.665,28.27,35.637-10.069,70.764-34.874,102.4-57.821,32.2-23.346,63.849-49.6,90.533-81.688,14.407-17.329,24.239-37.677,37.033-56.294,16.09-23.372,52.5-14.521,74.135-12.542,35.916,3.285,148.927,27.862,138.5-51.741-4.353-33.226-21.493-63.89-34.029-93.209-5.2-12.168-12.715-26.771-13.89-40.714C701.253,451.909,712.75,437.486,720.2,426.692Z" transform="translate(1303.593 1484.736) rotate(180)" fill="none" stroke="#fff" stroke-miterlimit="10" stroke-width="2"/>
      <path id="Shape-6" data-name="Shape" d="M670.409,403.537c18.926-32.488,41.575-63.18,57.814-98.27,10.535-22.725,20.88-53.087,7.29-77.131C720.175,201,686.353,194.677,661.5,191.219c-25.6-3.559-56.171-6.554-77.1-27.127-6.658-6.553-12.146-15.39-13.169-25.972-.985-10.15,1.8-20.3.875-30.635-2.065-23.206-13.753-42.328-28.821-56.2C498.71,10.261,432.363,1.139,378.578.066c-26.922-.533-54.627,2.265-81.723,4.269-35.16,2.6-70.374,8.184-103.9,21.64C121.657,54.574,73.871,118,40.5,196.93c-10.5,24.844-18.541,51.723-35,71.688C-2.99,278.927-1.136,286.33,7.54,295.732,21.1,310.425,37.648,321.653,52.7,333.916c21.412,17.44,43.282,35.14,62.218,56.031,13.052,14.4,22.318,28.277,25.131,49.871,2.007,15.4,1.538,31.086,2.745,46.578,2.3,29.433,10.161,58.638,24.082,83.05,11.061,19.349,24.23,36.935,37.841,53.7a404.2,404.2,0,0,1,46.094,69.918c17.814,34.3,42.844,97.559,84.8,80.817,46.279-18.474,89.656-65.414,119.346-110.894,9.971-15.27,18.156-34,31.6-45.258,20.132-16.831,40.559-16.241,64.5-16.171,35.851.1,113.859,9.465,114.7-55.193.332-25.617-8.875-49.839-13.284-74.479C647.518,444.292,657.484,425.678,670.409,403.537Z" transform="translate(1266.882 1458.538) rotate(180)" fill="none" stroke="#fff" stroke-miterlimit="10" stroke-width="2"/>
      <path id="Shape-7" data-name="Shape" d="M626.633,381.007c18.72-42.342,60.7-111.92,28.771-159-16.865-24.887-46.694-34.234-71.718-39.807-20.137-4.507-44.423-6.2-59.638-25.308-11.183-14.048-6.219-34.494-10.5-52.081-5.317-21.8-17.524-39.642-32.523-53.05C439.108,14.285,380.829,2.784,330.408.337,278.043-2.2,220.344,9.66,171.067,32.479,109.626,60.938,63.6,114.825,31.4,183.068c-5.936,12.6-11.336,25.523-17.039,38.273-3.831,8.552-9.513,16.825-12.533,25.821-5.028,15,.9,27.261,10.393,37.036,13.661,14.074,30.441,24.091,46.015,34.653,21.3,14.454,43.069,28.649,62.879,45.608,13.312,11.412,27.247,23.7,32.012,43.5,3.252,13.5,3.926,27.805,3.81,41.791-.253,29.987,1.054,54.236,12.681,81.7,19.131,45.088,48.55,85.63,79.628,119.363,24.391,26.474,62.985,67.6,98.522,49.9,31.885-15.849,50.535-53.786,71.545-84.456,10.214-14.911,21.687-28.528,35.168-39.135,17-13.37,33-18.981,53.135-21.168,33.893-3.684,85-4.641,95.476-53.583,3.869-18.062,1.66-36.77,3.689-55.066C609.437,423.109,617.189,402.366,626.633,381.007Z" transform="translate(1237.202 1433.112) rotate(180)" fill="none" stroke="#fff" stroke-miterlimit="10" stroke-width="2"/>
      <path id="Shape-8" data-name="Shape" d="M579.832,357.92c13.33-46.331,30.843-104.72-1.354-145.9-15.6-19.948-37.532-31.1-58.758-39.433-15.206-5.972-39.348-7.73-48.671-26.091-6.847-13.512-7.8-32.153-13.989-46.629a132.861,132.861,0,0,0-36.535-49.13C381.119,17.3,329.793,4.377,282.987.677,181.284-7.351,77.8,56.592,23.379,161.794c-16.227,31.359-37.173,64.737-10.95,96.774,28.631,34.951,71.761,51.325,105.931,76.161,13.056,9.482,29.694,20.88,36.979,38.048,4.382,10.32,4.682,23.269,4.882,34.627.526,28.934,2.523,54.956,12.185,81.955,14.926,41.724,38.727,80.216,65.7,111.746,23.522,27.494,57.066,59.8,91.228,39.984,26.192-15.232,42.8-47.562,63.154-71.394,22.651-26.542,50.656-44.427,81.415-53.164,29.921-8.475,62.739-14.2,78.508-50.221,5.409-12.357,11.061-28.354,13.088-42.034a492.642,492.642,0,0,1,14.331-66.355Z" transform="translate(1209.866 1408.456) rotate(180)" fill="none" stroke="#fff" stroke-miterlimit="10" stroke-width="2"/>
      <path id="Shape-9" data-name="Shape" d="M533.132,333.591c6.17-46.784,6.852-95.568-21.8-132.44-13.372-17.2-30.276-29.424-47.37-40.5C451.387,152.508,438.4,145.636,429,132.278c-8.7-12.367-15.317-26.727-23.719-39.417a182.157,182.157,0,0,0-39.274-43.117c-37.424-29.373-82.949-43.11-126.5-47.876-21.084-2.316-43.954-3.522-64.9,2.792-20.225,6.091-40.225,15.724-58.819,26.955C76.263,55.468,42,90.4,17.165,134.563.138,164.855-9.074,194.31,12.98,225.041c24.863,34.64,63.847,53.752,95.978,76.233,22.038,15.419,46.737,30.534,50.854,63.3,3.28,26.073,5.94,50.82,14.421,75.466,12.622,36.353,31.181,69.282,54.575,96.837,21.395,25.1,48.461,46.4,79.064,33,24.246-10.641,43.058-34.481,64.242-51.524,23.608-19.036,49.547-29.531,76.861-37.97,24.546-7.615,47.66-19.315,63.525-44.158a123.5,123.5,0,0,0,9.161-16.282c3.195-7.243,2.946-14.429,3.573-22.551C526.87,375.953,530.34,354.766,533.132,333.591Z" transform="translate(1184.87 1383.801) rotate(180)" fill="none" stroke="#fff" stroke-miterlimit="10" stroke-width="2"/>
      <path id="Shape-10" data-name="Shape" d="M484.988,307.423c-.527-44.438-9.4-86.436-33.718-121.067-10.394-14.815-22.807-27.017-34.245-40.593-9.21-10.941-17.913-21.111-28.5-30.132-25.12-21.355-45.536-48.989-72.231-68.005C280.655,22.2,239.835,8.152,199.331,2.533c-19.778-2.745-40.209-3.705-60.22-.6C121.928,4.592,105.467,13.941,90.2,23.5,60.275,42.24,31.219,68.87,11.789,102.561c-42.838,74.275,41.621,128.281,84.97,159.906,19.936,14.548,50.4,31.4,58.565,60.213,5.838,20.586,9.394,41.521,16.912,61.471,20.194,53.577,61.188,116.592,115.82,108.2,23.373-3.584,44.677-18.145,66.5-27.92,22.47-10.067,45.66-15.679,69.014-21.837,21.828-5.752,39.224-13.937,53.322-35.883,6.738-10.479,6.143-23.026,6.743-35.883C484.619,349.71,485.225,328.47,484.988,307.423Z" transform="translate(1160.658 1361.454) rotate(180)" fill="none" stroke="#fff" stroke-miterlimit="10" stroke-width="2"/>
      <path id="Shape-11" data-name="Shape" d="M437.422,278.616c-8.775-67.076-41.371-140.3-89.3-179.257-56.375-45.823-117.451-84.412-184.81-95.5C132.08-1.286,97.871-3.816,68.4,13,45.977,25.8,19.927,44.92,7.585,71.81c-30.2,65.775,36.968,118.137,75.233,148.567,20.6,16.382,46.825,32.345,62.353,56.268,9.009,13.869,13.608,32.219,20.881,47.452,22.042,46.165,58.324,83.4,103.52,90.059,20.9,3.076,41.943-.73,62.686-3.755,21.229-3.1,42.724-4.777,63.82-9.092,16.841-3.45,36.688-9.291,42.891-30.988C446.789,342.977,441,306.008,437.422,278.616Z" transform="translate(1134.883 1338.341) rotate(180)" fill="none" stroke="#fff" stroke-miterlimit="10" stroke-width="2"/>
      <path id="Shape-12" data-name="Shape" d="M391.837,247.808c-12.8-63.062-39.9-124.576-85.47-162.223C282.2,65.623,254.155,51.843,227.224,38.227,196.7,22.8,164.8,10.819,132.231,4.877,91.672-2.524,25.982-9.195,4.792,46.441c-21.032,55.223,32.116,104.1,63.545,131.952,20.151,17.843,41.716,34.219,60.968,53.725,10.44,10.575,18.481,22.794,27.316,35.2,24.417,34.364,59.226,61.571,94.705,76.094,34.383,14.079,76.923,20.312,113.221,15.659,15.662-2,26.857-8.747,31.593-27.929C402.7,304.473,397.128,273.859,391.837,247.808Z" transform="translate(1110.667 1318.309) rotate(180)" fill="none" stroke="#fff" stroke-miterlimit="10" stroke-width="2"/>
      <path id="Shape-13" data-name="Shape" d="M342.49,215.413c-12.716-55.524-40.139-106.235-80.148-139.562C217.5,38.494,159.754,17.736,106.676,7.18,78.465,1.573,17.33-13.629,2.951,29.879S30.144,116.261,54.07,139.864c29.038,28.6,60.346,56.22,91.619,81.882,27.163,22.313,56.156,45.126,85.586,62.357a281.948,281.948,0,0,0,51.663,23.849c13.163,4.475,29.9,11.151,43.7,7.819C361.445,307.359,348.571,241.961,342.49,215.413Z" transform="translate(1082.554 1302.899) rotate(180)" fill="none" stroke="#fff" stroke-miterlimit="10" stroke-width="2"/>
      <path id="Shape-14" data-name="Shape" d="M289.723,181.836C261.823,76.834,173.429,25.2,88.32,7.192,68.543,3.013,13.1-12.051,2.047,20.024-8.669,51.124,25.4,88.006,41.354,105.481,90.779,159.626,151.84,199.773,209.7,239.546c18.061,12.415,50.635,39.355,73.042,26.928C307.068,252.953,295.5,203.61,289.723,181.836Z" transform="translate(1055.997 1285.949) rotate(180)" fill="none" stroke="#fff" stroke-miterlimit="10" stroke-width="2"/>
      <path id="Shape-15" data-name="Shape" d="M230.683,142.367C206.42,65.041,135.85,20.692,70.967,6.068,55.075,2.49,14.714-8.649,2.678,12.93-8.461,32.891,18.121,61.815,28.062,73.308c22.14,25.593,48.378,46.677,74.3,66.943,23.967,18.75,48.192,37.969,73.412,53.826,13.283,8.348,38.194,26.158,53.29,13.269C245.318,193.485,236.07,159.538,230.683,142.367Z" transform="translate(1025.534 1266.69) rotate(180)" fill="none" stroke="#fff" stroke-miterlimit="10" stroke-width="2"/>
      <path id="Shape-16" data-name="Shape" d="M161.7,98.97C143.207,48.472,93.679,15.681,49.989,4.784,38.233,1.856,12.823-5.732,2.906,7.754c-9.13,12.42,5.585,30.627,12.115,39.036,28.945,37.271,71.33,70.564,110.164,91.012,9.763,5.141,27.316,15.231,37.361,4.854C172.849,132,165.948,110.566,161.7,98.97Z" transform="translate(988.043 1245.884) rotate(180)" fill="none" stroke="#fff" stroke-miterlimit="10" stroke-width="2"/>
      <path id="Shape-17" data-name="Shape" d="M86.115,51.564C75.695,26.49,48.459,7.572,25.9,1.546,10.021-2.692-9.063.969,4.773,22.8,18.52,44.462,44.026,64.243,65.643,73.013,82.136,79.7,95.063,73.1,86.115,51.564Z" transform="translate(945.866 1219.691) rotate(180)" fill="none" stroke="#fff" stroke-miterlimit="10" stroke-width="2"/>
      <path id="Shape-18" data-name="Shape" d="M503.9,393.969c.669-49.542,22.534-101.024,11.735-151.5-8.867-41.457-53.509-44.92-80.293-63.7-21.281-14.922-33.359-41.355-44.868-66.718-10.341-22.77-19.629-46.224-30.522-68.62C352.9,28.952,340.79.521,325.5.008c-14.64-.495-28.065,21.66-36.569,34.757-11.091,17.071-20.918,35.27-31.685,52.614-18.145,29.255-39.912,50.909-64.844,71.4q-42.552,34.98-86.51,67.567c-21.576,16.044-43.3,31.968-64.039,49.6C28.844,287.007.132,307.759,0,328.151c-.063,9.731,7.593,20.507,12.756,28.285,8.735,13.166,18.692,25.2,28.681,36.983C60.04,415.358,79.432,436.3,98.611,457.5c24.9,27.509,48.681,54.567,70.567,85.8,22.629,32.329,44.247,65.723,66.307,98.66,14.94,22.314,29.865,47.371,51.414,61.064,26.991,17.115,49.146-.932,76.442-1.141,23.481-.184,21.749-65.7,24.734-83.922,2.995-18.44,9.594-35.606,12.151-54.088,3.189-23.074,3.231-46.68,4.015-70,.952-28.525,1.328-55.682,26.649-66.56,14.409-6.181,29.993-7.48,44.911-11.182C485.465,413.727,503.689,409.62,503.9,393.969Z" transform="translate(518.625 1388.423) rotate(180)" fill="none" stroke="#fff" stroke-miterlimit="10" stroke-width="2"/>
      <path id="Shape-19" data-name="Shape" d="M466.581,368.976c2.461-41.529,17-94.676,3.252-137.542-11.748-36.631-48.488-41.38-73.228-60.622-20.423-15.872-29.515-41.844-39.723-67.359-8.19-20.468-16.133-41.133-25.43-60.946C324.6,27.906,314.138,3.255,299.892.233,287.083-2.485,273.35,19.278,266.161,30.35c-10.488,16.163-19.459,33.717-28.724,50.9-16.28,30.187-32.954,57.334-56.776,79.509-23.933,22.267-50.117,38.923-76.58,56.255-20.7,13.561-41.3,27.515-60.969,43.171C28.458,271.843,7.392,286.762.688,307.547-4.623,323.99,22.3,351.276,30.234,360.907c16.338,19.8,33.652,38.39,51,56.862,21.145,22.512,42.965,42.2,61.638,67.88,33.4,45.911,61.316,103.089,104.292,137.214,25.919,20.58,54.765,25.843,83.595,22.764,11.416-1.219,14.157-20.627,15.6-31.946,2.393-18.8,2.693-37.933,4.53-56.814,1.724-17.674,5.549-34.466,8.633-51.8,3.12-17.56,4-35.552,6.293-53.232,1.423-10.976,2.831-23.75,9.055-32.575,6.441-9.136,17.065-12.964,26.352-15.872C418.657,397.983,464.842,398.281,466.581,368.976Z" transform="translate(492.851 1372.242) rotate(180)" fill="none" stroke="#fff" stroke-miterlimit="10" stroke-width="2"/>
      <path id="Shape-20" data-name="Shape" d="M412.665,330.79c4.14-38.118,9.934-85.594-6.929-120.713-13.784-28.715-43.181-34.909-64.179-53.62-17.465-15.559-24.061-40.305-32.726-63.3-7.113-18.862-14.264-37.807-22.885-55.757C279.407,23.787,270.98,5.33,258,.582c-11.1-4.057-23.64,14.12-29.793,23.167-10.478,15.42-19.02,32.7-27.5,49.746-13.879,27.9-26.65,57.7-46.4,80.388C135.1,175.9,112.3,188.9,89.076,203.515,71.285,214.712,53.6,226.34,36.84,239.693,23.969,249.94,8.019,262.08,1.311,279.129c-5.8,14.7,9.091,32.107,16.531,42.48,12.286,17.119,25.923,32.823,39.365,48.592,14.511,17.011,30.584,32.7,44.626,50.133,29.53,36.675,53.121,77.288,89.516,105.388,23.569,18.2,55.287,34.737,83.15,31.764,20.037-2.143,18.72-55.541,20.644-72.6,3.164-27.9,9.275-57.208,18.98-82.9,8.337-22.02,28.148-28.81,46.372-33.747,11.416-3.1,23.381-4.777,34.423-9.567C407.7,353.108,410.93,346.768,412.665,330.79Z" transform="translate(453.792 1351.44) rotate(180)" fill="none" stroke="#fff" stroke-miterlimit="10" stroke-width="2"/>
      <path id="Shape-21" data-name="Shape" d="M351.166,286.725c2.464-32.227,1.911-70.335-14.054-98.212-13.991-24.418-38.9-30.847-56.618-50.082C266.669,123.425,261.236,98.955,253.8,79.11,244.713,54.845,231.978,10.028,209.052.9c-21.323-8.489-43.629,45.739-51.351,61.91-12.223,25.594-22.445,53.662-37.27,77.3-12.766,20.349-29.871,31.6-48.026,43.687-23.148,15.439-58.291,33.747-70.667,63.837-9.225,22.421,20.776,55.754,31.016,71.289,10.714,16.228,18.783,35.463,29.837,51.119,17.447,24.7,45.719,44.594,69.062,59.773,22.7,14.764,52.167,31.106,77.911,30.132,16.92-.636,20.139-32.1,23.749-47.469,5.172-21.849,12.049-41.428,26.821-56.288,15.035-15.128,32.758-22.256,51.388-28.494,9.563-3.179,20.472-5.659,29.027-12.082C350,308.619,350.217,299.113,351.166,286.725Z" transform="translate(406.153 1325.242) rotate(180)" fill="none" stroke="#fff" stroke-miterlimit="10" stroke-width="2"/>
      <path id="Shape-22" data-name="Shape" d="M288.2,237.331c-.137-27.842-5.424-57.53-21.1-79.006C254.04,140.436,233.6,134.457,221.1,116.17c-9.9-14.477-14.939-34.8-21.567-51.614C191.43,43.953,179.968,7.962,159.809.812,140.135-6.149,122.734,33.494,115.19,49.18c-11.047,23-19.99,47.381-31.136,70.319-8.732,18-19.411,29.595-33.63,41.193-16.691,13.623-39.979,28.715-48.894,51.254-6.428,16.319,9.132,42.395,14.782,56.771,3.787,9.656,7.254,19.463,9.159,29.93,1.484,8.15,1.631,15.693,5.928,22.691,10.818,17.6,34.543,19.9,50.64,25.7,21.378,7.7,44.062,16.452,66.435,18.122,13.751,1.044,20.768-14.212,28.616-24.943,9.274-12.687,22.4-21.811,33.872-31.385,15.135-12.655,31.6-20.527,48.644-28.585,7.686-3.638,16.715-7.207,22.667-14.44C288.49,258.307,288.242,247.38,288.2,237.331Z" transform="translate(360.067 1294.423) rotate(180)" fill="none" stroke="#fff" stroke-miterlimit="10" stroke-width="2"/>
      <path id="Shape-23" data-name="Shape" d="M234.532,190.754c-2.717-23.383-11.185-45.732-25.487-62.262-10.964-12.691-25.524-19.836-34.322-35.084-8.2-14.214-13.912-30.376-20.684-45.573C146.872,31.768,136.225,4.914,119.7.542,101.882-4.166,88.159,22.923,80.56,37.936c-9.6,18.973-16.893,39.386-25.476,59.013a167.561,167.561,0,0,1-24.468,39.69C20.384,148.956,6.509,160.756,1.332,177.688c-4.576,15,3.983,33.149,5.5,48.359,1.617,16.25-1.216,33.32,7.746,47.273,18.481,28.777,64.867,23.441,91.386,24.056,26.166.635,47.2-16.974,68.376-33.726,13.986-11.06,28.551-20.426,42.89-30.731C231.846,222.4,236.922,211.332,234.532,190.754Z" transform="translate(324.139 1264.374) rotate(180)" fill="none" stroke="#fff" stroke-miterlimit="10" stroke-width="2"/>
      <path id="Shape-24" data-name="Shape" d="M196.186,148.092c-8.036-33.875-33.132-51.88-51.072-77.48C130.435,49.655,119.428,6.253,94.706.511,66.638-6,49.836,51.5,40.077,73.692,29.249,98.3,9.965,118.319,1.946,144.37c-4.218,13.673-.6,26.432,1.649,40.1C6.055,199.483,7.9,214.823,16.4,226.9c16.719,23.771,49.368,23.606,72.886,24.26,24.343.68,45.877-15.61,65.273-31.868C175.127,202.077,204.416,182.834,196.186,148.092Z" transform="translate(302.271 1235.099) rotate(180)" fill="none" stroke="#fff" stroke-miterlimit="10" stroke-width="2"/>
      <path id="Shape-25" data-name="Shape" d="M163.983,111.168c-9.054-24.135-28.081-43.756-43.52-62.279C107.576,33.447,93.714,2.361,74.068.145,50.975-2.467,36.98,30.725,27.894,51.082c-8.943,20-21.829,41.114-26.781,63.065-5.164,22.866,8.588,53.665,21.7,69.845,14.627,18.04,38.557,24.707,59.091,23.987,21.5-.732,41.227-15.641,57.51-31.111C156.823,160.334,174.513,139.185,163.983,111.168Z" transform="translate(283.525 1207.357) rotate(180)" fill="none" stroke="#fff" stroke-miterlimit="10" stroke-width="2"/>
      <path id="Shape-26" data-name="Shape" d="M131.967,84.28c-8.649-20.074-23.64-37.055-37.464-52.2C83.835,20.384,68.095.5,52.7.013c-16.931-.539-31.28,16.153-38.01,33.261C8.06,50.147,1.069,71.3.077,89.815c-2.159,40.312,41.754,85.472,74.728,81.794C106.067,168.121,149.211,124.28,131.967,84.28Z" transform="translate(263.997 1185.015) rotate(180)" fill="none" stroke="#fff" stroke-miterlimit="10" stroke-width="2"/>
      <path id="Shape-27" data-name="Shape" d="M103.236,64.346C91.3,38.191,62.323.9,35.493.018,4.7-.994-3.036,40.5.979,70.57c4.078,30.689,39.585,75.111,67.9,69.109C96.509,133.822,117.376,95.364,103.236,64.346Z" transform="translate(246.815 1167.292) rotate(180)" fill="none" stroke="#fff" stroke-miterlimit="10" stroke-width="2"/>
      <path id="Shape-28" data-name="Shape" d="M77.765,50.1C67.663,28.2,46.107.85,23.623.02-3.167-.959-2.66,34.076,3.414,55.877c6.317,22.638,34.139,61.306,57.6,55.2C83.819,105.118,87.445,71.091,77.765,50.1Z" transform="translate(233.538 1157.278) rotate(180)" fill="none" stroke="#fff" stroke-miterlimit="10" stroke-width="2"/>
      <path id="Shape-29" data-name="Shape" d="M53.865,36.023C47.2,20.4,30.512.647,14.644.015-4.747-.744-.977,27.042,4.033,40.452,9.988,56.41,29.95,84.137,46.7,79.645,63.194,75.221,59.367,48.9,53.865,36.023Z" transform="translate(220.26 1145.719) rotate(180)" fill="none" stroke="#fff" stroke-miterlimit="10" stroke-width="2"/>
      <path id="Shape-30" data-name="Shape" d="M232.026,448.816c42.921,31.35,91.441,57.229,137.2,83.533,66.865,38.43,134.715,75.834,204.973,104.461,37.668,15.348,86.479,37.473,126.9,25.45,14.777-4.392,28.254-17.686,41.5-26.322,18.271-11.909,36.81-23.228,55.317-34.572,37.126-22.739,74.367-45.251,110.855-69.449,17.57-11.655,34.618-26.335,52.909-36.278,10.69-5.815,23.481-3.094,34.9-2.727,26.458.856,52.9,2.48,79.34,3.862,32.342,1.687,64.758,3.481,97.137,2.815,14.606-.308,50.37,2.815,58.409-12.328,4.325-8.155-5.869-22.86-10.594-29.664-8.677-12.505-18.649-23.773-28.491-34.927-22.759-25.8-46.93-50.361-67.16-79.176-10.395-14.813-24.013-32.911-17.227-53.133,6.849-20.425,18.713-38.111,25.952-58.466,8.335-23.423,11.794-47.8,15.726-72.638,2.914-18.358,9.7-34.623,16.079-51.546,7.049-18.707,14.35-37.571,19.245-57.3,3.234-13.031,8.456-36.474-2.861-44.725-16.079-11.731-46.229-2.234-64.558,1.224-25.33,4.769-50.475,10.843-75.737,16.075-18.338,3.8-36.741,7.977-55.386,8.421-30.055.717-60.211-1.763-90.187-4.071-55.507-4.274-110.616-10.07-166.309-10.07-48.794,0-161.552,67.957-187.946,79.924-52.683,23.885-106.767,46.531-156.621,78.313-13.487,8.6-34.244,20.07-41.34,37.781-4.378,10.913-2.366,17.223-12.691,24.255-14.087,9.594-32.137,13.361-47.731,17.654-25.114,6.912-50.423,12.765-75.653,19.023-51.027,12.625-101.708,26.9-152.523,40.646C40.09,319.018,21.5,319.937,6.858,327.255c-9.441,4.7-8.461,10.615-1.154,17.755C18.522,357.541,36.486,364.5,51.63,371.643c22.182,10.469,44.733,19.81,67.292,29.017s45.234,18.13,67.8,27.352C201.628,434.094,218.628,439.031,232.026,448.816Z" transform="translate(1310.618 665.703) rotate(180)" fill="none" stroke="#fff" stroke-miterlimit="10" stroke-width="2"/>
      <path id="Shape-31" data-name="Shape" d="M168.942,415.723c45.4,31.415,95.8,56.441,144.382,80.858C375.5,527.849,439.09,557.156,504.607,576.7c38.464,11.469,83.852,24.131,123.155,10.979,14.022-4.693,24.5-15.24,36.517-24.55,13.7-10.624,27.928-20.359,42.155-29.941q43.93-29.587,88.789-57.152c15.84-9.773,33.273-22.861,51.171-26.252,14.228-2.7,30.389,1.207,44.677,2.343,25.736,2.045,51.466,4.153,77.212,5.944,29.709,2.064,59.5,3.969,89.275,3.639,16.594-.184,45.08,2.858,56.815-10.053,10.238-11.265-27.037-52.008-33.593-59.749-20.472-24.169-42-47.182-61.057-73.028-11.26-15.24-24.972-33.777-29.719-53.977-4.041-17.216,3.757-36.829,8.363-52.745,5.76-19.933,10.407-40.6,17.1-60.111,5.959-17.387,15.445-32.875,23.775-48.681,9.163-17.387,18.443-35.057,25.245-54.028,4.168-11.671,11.066-31.218,2.782-42.343-9.57-12.827-39.067-4.445-51.192-2.62-24.6,3.759-49.005,9.348-73.434,14.352C902.069,27.034,863.386,34.3,822.068,32.559c-53.806-2.274-107.559-7.62-161.355-10.58-19.865-1.1-40.047-3.328-59.929-2.127-11.4.694-20.073,4.883-26.705,14.339-9.052,12.9-29.9,20.047-44.406,27.452C507.062,73.181,484.166,83.91,461.33,94.785c-50.123,23.877-101.21,46.89-148.745,77.772-15.039,9.767-32.258,20.658-43.383,36.793-6.207,9-4.643,17.667-8.431,27.23-5.017,12.58-21.51,18.261-31.369,22.372-19.028,7.951-38.836,13.279-58.491,18.27C126.438,288.512,81.858,295.936,36.663,301.4c-10.591,1.27-52.3,5.671-30.394,26.881,24.21,23.445,59.157,34.925,87.649,48.137C119.584,388.3,145.272,399.345,168.942,415.723Z" transform="translate(1212.215 639.507) rotate(180)" fill="none" stroke="#fff" stroke-miterlimit="10" stroke-width="2"/>
      <path id="Shape-32" data-name="Shape" d="M119.2,369.846c42.676,27.638,89.951,48.256,135.913,67.98C310.89,461.76,368.058,483.1,426.559,495.047c36.743,7.5,77.256,13.264,113.755.8,24.924-8.509,44.208-31.513,66.1-47.337s44.67-30.681,68.128-43.063c14.559-7.684,30.221-15.426,46.421-14.408,39.389,2.46,78.731,8.321,118.162,11.172,26.088,1.9,52.223,3.467,78.388,3,15.777-.279,37.453.862,51.422-9.13,15.44-11.051-66.772-105.407-74.542-116.027-19.481-26.629-43.071-61.97-39.3-99.841,3.6-36.2,19.214-63.232,36.878-91.6,10.023-16.136,42.164-59.244,30.253-80.23-6.8-12-29.234-7.843-39.89-7.025-21,1.61-41.884,5.072-62.774,8.078C789.089,13.79,757.8,20.517,727.2,22.489c-21.3,1.369-42.728-.462-64.066-.5-30.6-.051-61.191.231-91.786.558-25.69.279-51.6,0-77.2,2.967-15.915,1.826-27.995,5.928-39.41,17.518-9.933,10.081-24.916,15.984-37.58,22.394-20.91,10.582-42.1,20.39-63.211,30.357-44.208,20.873-88.928,41.307-131.244,67.391-19.317,11.9-51.8,28.563-56.327,57.418-1.636,10.4-2.838,14.9-11.278,20.815-11.98,8.4-26.328,12.18-39.769,15.471C84,264.548,51.76,263.4,20.481,270.983,7.742,274.109-8.887,280.855,5.653,296.3c16.97,18.063,41.674,27.993,62,39.151,10.149,5.567,20.6,10.778,30.242,17.576C105.3,358.261,111.634,364.978,119.2,369.846Z" transform="translate(1099.732 599.439) rotate(180)" fill="none" stroke="#fff" stroke-miterlimit="10" stroke-width="2"/>
      <path id="Shape-33" data-name="Shape" d="M82.871,319.614c39.427,22.447,82.246,38.768,124.3,53.481,46.707,16.321,94.538,29.839,143,35.591,33.465,3.985,69.124,5.162,101.6-7.035,20.542-7.716,34.466-23.941,52.141-37.548,26.676-20.566,55.538-36.862,87.586-32.9q53.893,6.654,108.143,9.984c21.815,1.341,43.714,2.345,65.555,1.411,13.809-.585,31.6-1.57,43.614-9.1,16.074-10.086-44.3-86.834-51.83-98.019-18.667-27.738-32.348-56.849-40.343-91.219-6.52-28.046,6.8-50.093,20.542-71.073,8.543-13.029,36.146-45.8,27.5-62.718-4.74-9.33-20.361-8.847-28.751-9.323-15.99-.9-32.049.038-48.035.451-23.611.636-48.744-3.731-72.154-.216C563.856,9.166,512.106,15.9,459.9,21.232c-28.778,2.936-57.729,5.605-86.249,11.268-10.239,2.034-20.815,4.188-30.515,8.79-6.241,2.956-9.644,7.988-14.91,12.12-25.112,19.664-57.892,29.782-86.174,42.385-37.6,16.753-75.4,33.245-112,53.036C110.8,159.24,83.918,171.2,70.672,192.448c-4,6.419-2.3,11.557-4.814,17.725-2.9,7.118-11.7,9.24-17.38,11.224C35.58,225.9-18.409,232.716,6.471,259.15c11.872,12.59,27,20.668,40.381,30.563,4.843,3.584,9.57,7.188,13.609,12.024C67.213,309.846,73.87,314.472,82.871,319.614Z" transform="translate(982.571 557.837) rotate(180)" fill="none" stroke="#fff" stroke-miterlimit="10" stroke-width="2"/>
      <path id="Shape-34" data-name="Shape" d="M79.178,283.7c77.834,36.32,169.051,61.062,253.91,56.269,28.219-1.6,58.58-6.94,83.043-25.212,14.424-10.793,25.952-22.978,43.276-26.876,12.508-2.812,25.977.381,38.558,1.536,18.224,1.676,36.458,3.174,54.708,4.387,22.625,1.479,45.324,2.62,67.991,2.013,16.2-.438,38.563.057,52.633-10.418,16.8-12.5-25.96-71.11-31.977-81.554-14.582-25.316-24.8-49.841-28.5-80.348-1.087-8.888-4.75-18-4.275-26.959.5-9.149,5.177-17.3,9.5-24.488,5.652-9.429,25.264-31.79,19.648-43.288-3.1-6.349-14.751-7.149-20.789-8.5-11.325-2.543-22.815-3.9-34.211-5.924C563.364,10.9,544.17-.309,524.77.007,472.6.845,419.677,20.324,368.553,31.022,338.159,37.4,307.559,43.2,277.536,51.834c-9.5,2.737-19.284,5.568-28.314,10.209-6.3,3.236-10.349,9.009-16.187,12.636-22.382,13.923-48.121,22.374-72.155,31.744-31.2,12.19-62.508,24.012-93.493,36.99C47.964,151.546,22.991,158.7,6.256,173.787-5.967,184.805,2.387,188.1,8.833,198.358c3.293,5.232,2.533,10.387,3.963,16.31,2.046,8.46,7.822,14.548,13.236,20.024,7.468,7.562,17.418,13.792,23.522,23.06,2.153,3.264,2.053,7.314,3.794,10.159C58.416,276.195,71.859,280.284,79.178,283.7Z" transform="translate(892.755 531.64) rotate(180)" fill="none" stroke="#fff" stroke-miterlimit="10" stroke-width="2"/>
      <path id="Shape-35" data-name="Shape" d="M111.942,242.248c63.172,22.833,133.459,35.834,200.234,29.8,23.233-2.1,46.608-6.986,68.249-17.714,9.846-4.865,17.237-10.289,28.027-10.581,25.035-.673,50.144,1.683,75.177,2.248,17.912.407,35.913.552,53.783-1.181,11.95-1.156,28.106-2.543,37.894-11.362,14.224-12.849-11.453-56.526-16.679-68.594-8.661-20.013-17.254-42.261-13.819-65.415,1.054-7.082,2.919-13.338,3.161-20.559.234-6.206-.416-11.934,1.412-17.866,2.26-7.355,12.312-18.768,8.856-25.539-2.355-4.623-9.341-4.839-13.987-6.318a126.152,126.152,0,0,1-22-9.412c-7.481-4.09-13.85-10.409-21.6-13.792C488.07.489,473.988-.025,460.765,0,408,.1,354.574,12.637,303.15,25.735c-26.778,6.821-53.7,14.094-79.729,24.44-7.9,3.144-16.858,6.3-23.807,12.105-4.336,3.614-7.276,8.143-12.2,10.864C145.336,96.351,96.69,104.97,52.021,121.731c-11.627,4.363-76.062,26.409-42.372,47.146,20.464,12.6,42.093,18.33,60.767,35.567,5.69,5.239,9.483,9.578,11.706,17.574,1.464,5.323-2.06,2.62,2.86,8.186C90.953,236.888,104.584,239.587,111.942,242.248Z" transform="translate(842.765 503.128) rotate(180)" fill="none" stroke="#fff" stroke-miterlimit="10" stroke-width="2"/>
      <path id="Shape-36" data-name="Shape" d="M115.922,198.7c73.959,18.637,152.281,19.523,227.408,3,18.938-4.161,38.648-3.166,57.82-4.224,18.627-1.013,51.744,1.1,65.274-16.148,9.81-12.5-.835-39.064-4.517-53.048-4.691-17.814-8.791-36.213-1.088-53.517,4.511-10.132,10.693-19.777,15.531-29.814,2.313-4.794,7.079-12.14,5.093-16.68-3.286-7.491-18.659-10.645-26.118-14.177C431.484,2.8,406.237-.076,380.747,0c-47.08.146-94.4,7.9-140.586,18.408-21.245,4.838-42.79,10-63.282,18.409-11.6,4.755-20.151,13.932-31.221,19.372C110,73.719,71.7,83.085,35.433,99.113c-10.5,4.641-49.706,20.094-29.954,38.313,19.124,17.637,47.02,15.54,66.9,32.129,2.25,1.9,5.035,4.173,6.339,7.243.771,1.836-.587,5.332,0,6.377C84.824,194.535,106.538,196.339,115.922,198.7Z" transform="translate(781.062 473.083) rotate(180)" fill="none" stroke="#fff" stroke-miterlimit="10" stroke-width="2"/>
      <path id="Shape-37" data-name="Shape" d="M92.761,160.955c37.943,6.266,76.721,7.82,115.3,8.215,21.089.217,44.26,1.834,64.895-4.6a339.2,339.2,0,0,1,37.985-9.92c14.059-2.687,36.7-4.641,45.258-19.2,6.4-10.882,2.012-33.249,1.78-46.48-.248-14.511,2.224-25.272,10.733-35.655,5.35-6.539,29.894-30.276,27.057-37.12-2.7-6.52-19.8-7.519-27.195-9.214C345.206,1.608,321.523-.261,297.751.029A558.434,558.434,0,0,0,187.735,12.763c-14.984,3.228-30.469,6.571-44.782,13.021-9.639,4.349-17.678,12.059-27.253,16.554C88.278,55.231,59.282,63.989,31.765,77.115,22.933,81.336-5.841,92.574,1.057,109.892c5.752,14.46,25.314,18.856,34.927,28.551C52.336,154.971,71.91,157.518,92.761,160.955Z" transform="translate(709.985 447.654) rotate(180)" fill="none" stroke="#fff" stroke-miterlimit="10" stroke-width="2"/>
      <path id="Shape-38" data-name="Shape" d="M58.084,128.765a686.943,686.943,0,0,0,91.438,6.05c19.71.057,40.5.381,59.845-4.954,9.716-2.677,18.158-8.938,27.353-13.4,9.468-4.591,22.534-9.716,26.627-20.244,3.845-9.894,2.409-24.328,5.786-36.258,3-10.585,9.289-17.123,16.059-24.277,4.313-4.573,26.464-24.367,23.9-28.739-2.746-4.681-16.048-4.3-22.971-4.947A443.808,443.808,0,0,0,228.786.264c-26.1.964-52.4,3.653-78.051,9.741-18.2,4.315-31.919,14.587-48.883,22.122C79.876,41.912,57.11,49.65,35.343,60.355,24.5,65.692,8.445,72.554,2.89,86.323.755,91.6-1.318,105.02,1.059,110.3c2.856,6.342,13.487,9.031,18.5,10.661C32.136,125.022,45.292,127,58.084,128.765Z" transform="translate(651.405 423.772) rotate(180)" fill="none" stroke="#fff" stroke-miterlimit="10" stroke-width="2"/>
      <path id="Shape-39" data-name="Shape" d="M48.009,102.452c37.625,5.1,80.137,9.424,117.877-.834,15.252-4.141,30.44-16.411,36.659-33.131,3.223-8.646,3.915-18.937,8.728-27.316a113.683,113.683,0,0,1,12.57-17C226.362,21.226,242.5,5.1,239.386,2.219,236.1-.821,228.039.173,222.534.1a376.623,376.623,0,0,0-39.577,1.631c-15.115,1.387-30.587,3.186-45.245,8.054-11.825,3.95-22.6,12.266-34.114,17.2C73.327,40.062,41.428,50.309,13.009,69.674c-6.046,4.117-18,10.278-10.738,19.581C11.308,100.846,36.385,100.884,48.009,102.452Z" transform="translate(613.133 407.586) rotate(180)" fill="none" stroke="#fff" stroke-miterlimit="10" stroke-width="2"/>
      <path id="Shape-40" data-name="Shape" d="M33.944,79.4c26.79,3.569,56.513,5.245,83.411-2.107,13.622-3.721,25.775-11.473,31.706-26.476,4.245-10.694,5.389-22.629,11.191-32.905,2.053-3.626,9.6-13.8,5.88-16.022-7.96-4.777-25.726.721-36.768,3.228-16.619,3.8-30.5,14.427-46.3,20.73-24.239,9.663-54.953,14.827-77.043,31.3C-15.268,73.071,26.127,78.354,33.944,79.4Z" transform="translate(566.269 393.72) rotate(180)" fill="none" stroke="#fff" stroke-miterlimit="10" stroke-width="2"/>
      <path id="Shape-41" data-name="Shape" d="M19.277,55.265c22.729,3.211,63.161,4.8,76.129-21.034,2.406-4.8,9.05-31.275,2.63-33.639-5.292-1.94-13.6,1.264-19.576,4.259C67.339,10.393,56.9,16.434,45.411,21.009c-9.785,3.893-19.8,7.482-29.462,12.007-4.1,1.9-11.8,4.2-14.373,8.522C-5.345,53.167,12.356,54.291,19.277,55.265Z" transform="translate(520.968 378.314) rotate(180)" fill="none" stroke="#fff" stroke-width="2"/>
    </g>
  </g>
</svg>
