<svg id="bfbe9198-c7c2-42ab-8cb4-d2e9476310c1" data-name="Layer 1" xmlns="http://www.w3.org/2000/svg" viewBox="0 0 588.01521 216.28571"><defs><style>.bb3c7665-390f-4de2-ad55-ed31697f24d1{font-size:143.50949px;font-family:Roboto-Black, Roboto;font-weight:800;letter-spacing:0.05926em;}.bb3c7665-390f-4de2-ad55-ed31697f24d1,.bffab102-8f7a-4b28-849d-726b89cfa663{fill:#fff;}.adace7a5-c637-4d71-a895-fec7fc9fbe1c{letter-spacing:0.06999em;}</style></defs><title>logowhite-01</title><text class="bb3c7665-390f-4de2-ad55-ed31697f24d1" transform="translate(195.52087 210.49163) scale(0.9509 1)">O<tspan class="adace7a5-c637-4d71-a895-fec7fc9fbe1c" x="107.58775" y="0">VUS</tspan></text><path class="bffab102-8f7a-4b28-849d-726b89cfa663" d="M180.3204,4.14286h-38.066a1.49712,1.49712,0,0,0-1.41043.93989L112.97675,78.45612a1.48789,1.48789,0,0,0,2.56384,1.38981L138.5484,53.56668a1.51243,1.51243,0,0,1,2.65253.9081v83.30949a1.51317,1.51317,0,0,1-2.71274.83456L36.1042,4.72991a1.52645,1.52645,0,0,0-1.21361-.58705H4.22861a1.4619,1.4619,0,0,0-1.49912,1.4216V207.27583a1.46191,1.46191,0,0,0,1.49912,1.42161h38.066a1.49715,1.49715,0,0,0,1.41043-.93989l27.86721-73.37338a1.48789,1.48789,0,0,0-2.56384-1.38981L46.00062,159.27361a1.51243,1.51243,0,0,1-2.65253-.90809V82.20684a1.51317,1.51317,0,0,1,2.71379-.83317L142.7311,208.109a1.52634,1.52634,0,0,0,1.21467.58844H180.3204a1.46191,1.46191,0,0,0,1.49913-1.42161V5.56446A1.46191,1.46191,0,0,0,180.3204,4.14286Z"/></svg>