<svg id="Layer_1" data-name="Layer 1" xmlns="http://www.w3.org/2000/svg" viewBox="0 0 345.1 353.04"><defs><style>.cls-1{fill:#fff;}</style></defs><title>dispatch</title><path class="cls-1" d="M30.44,89.22c0-19.63,0-38.82,0-58,0-11.67,2-12.5,13.68-12.55,13.6-.07,27.17-2.25,40.78-2.87,11.16-.51,22.75-1.89,33.46.37a141.52,141.52,0,0,0,43.1,2.41c8.12-.77,10.88,1.55,10.95,9.85.08,10.2,0,20.39,0,31.49h8.66q41.63,0,83.23,0c2.72,0,5.89-.31,8,.94s4.65,4.28,4.71,6.59-2.18,5.57-4.34,6.82c-2.36,1.37-5.77,1.2-8.72,1.21q-41.24.1-82.48,0h-8.67V89.91h39.74c6,0,12,0,18,0C237,90,240.07,93,240,99.71c-.18,18-.06,36-.06,54v9.37c12.19,0,24.11.63,35.92-.19,9.73-.68,15.43,2.81,20.44,11.16,14.52,24.18,30.06,47.74,44.86,71.76a28.8,28.8,0,0,1,3.62,12.49c.57,7.46.17,15,.15,22.49,0,16.65-8.56,25.83-25.27,27.24-1.24.11-2.48.17-3.21.22-2,9.52-4,18.82-6.2,29.17,4.68,0,10.24,0,15.8,0s11.24.57,11.22,7.78S331.59,353,326,353H110.08q-44.62,0-89.23,0c-2.48,0-5.67.56-7.28-.72-2.55-2-6.16-6.12-5.51-8,1-2.88,5.12-6.27,8.17-6.55,9.42-.85,19-.3,28.47-.35,1.92,0,3.83-.27,5-.36-2.07-9.36-4.07-18.45-6.4-29-5.4,0-12.28.06-19.16,0C7.45,307.85,0,300.31,0,283.61q0-90.74,0-181.46C0,91.86,1.89,90,12.17,89.91c5.5,0,11-.07,16.49-.14A7.57,7.57,0,0,0,30.44,89.22ZM224.57,224.54V106.1H202.44c0,19.75,0,38.94,0,58.14,0,5.16-2.58,8.36-7.5,8.36s-7.51-3.2-7.48-8.37c.08-11.24,0-22.48,0-33.73v-25c-3.44,0-6,.34-8.37-.06-6.63-1.12-9,1.82-11.4,8-3,8-8,15.47-13.23,22.28-5.47,7.06-13.2,12.42-18.4,19.64-11.4,15.84-26.6,20.58-44.92,17.5-3.9-.65-8.58-2.08-11.07-4.81-17.77-19.48-41.29-34.56-47.57-62h-17V224.54Zm.07,16.58H15.34v13.79h8.41q41.6,0,83.19,0c2.47,0,5.48-.48,7.3.7,2.38,1.56,5.24,4.53,5.28,6.93s-2.71,5.56-5.08,7c-2.07,1.29-5.3.91-8,.91q-41.6.08-83.18,0H15c0,5.39.17,9.61,0,13.82-.3,5.72,2.14,8.24,7.92,8.09,7.74-.2,15.52.39,23.22-.23A18.39,18.39,0,0,0,56.31,288c15.23-13.86,37.09-13.86,52.31,0a17,17,0,0,0,10.26,4.23c33,.32,65.94.2,98.92.17,2.17,0,4.34-.26,6.84-.41ZM46.89,36.65c0,19.11-.34,39.31.13,59.49.29,12.21,5.78,22.56,14.33,31.26,8.93,9.08,17.78,18.24,26.83,27.2,4.36,4.32,22.89,4.18,27.22-.21,9.82-10,20-19.62,28.93-30.36,4.75-5.73,9.47-13.23,10.09-20.29,2-22.55,2-45.28,2.71-67.94,0-.33-.61-.69-.94-1v2C119.82,29.33,83.46,29.83,46.89,36.65Zm193.4,257.42c4.38-2.27,8.14-3.33,10.69-5.69,14.63-13.54,36.15-15.1,50.24-1.84,6,5.63,11.92,6,18.89,5.82,6.43-.21,9.59-3.74,9.82-9.88s-.53-12.07.21-18c1.18-9.35-4.24-16-9.5-21.85-2.45-2.7-9.16-1.91-14-2-10.23-.26-20.48-.06-30.72-.08-9.7,0-13.87-2.36-13.35-8,.76-8.19,7.15-7.58,12.95-7.59,9.24,0,18.49,0,27.73,0a61.69,61.69,0,0,0,6.31-.78c-9.45-14.95-18.32-29-27.31-43.09-.72-1.12-2.24-2.43-3.4-2.45-12.86-.17-25.72-.11-38.6-.11ZM121.55,308.46c-2.26,10.2-4.26,19.28-6.25,28.27H244.51c-2-9.54-3.93-18.62-6-28.27ZM82.18,337.27A22.12,22.12,0,1,0,60,314.69C59.65,326.83,69.79,337.15,82.18,337.27Zm195.12,0A22.11,22.11,0,1,0,255,314.8C254.72,327,264.89,337.2,277.3,337.27Z"/><path class="cls-1" d="M281.17,37.41q19.06,0,38.12,0c5.42,0,10.47,1,10.51,7.71s-5,7.89-10.41,7.9q-38.11.06-76.24,0c-5.36,0-10.46-1.14-10.51-7.8s5-7.81,10.41-7.81Q262.12,37.43,281.17,37.41Z"/><path class="cls-1" d="M337.44,120.23a22.88,22.88,0,0,1-22.16,22.65c-12.26.24-22.8-10.32-22.77-22.79a22.87,22.87,0,0,1,22.16-22.64C327,97.22,337.47,107.73,337.44,120.23Zm-14,1.57.05-3.13c-2.76-1.84-5.64-5.3-8.23-5.1s-6.72,3.61-7.3,6.24c-.95,4.32,2.34,8,7.1,7.15C318.06,126.44,320.65,123.6,323.43,121.8Z"/><path class="cls-1" d="M224.93,19.12A18.71,18.71,0,1,1,206.05,0,18.93,18.93,0,0,1,224.93,19.12Z"/><path class="cls-1" d="M224.57,224.54H15.51V106.05h17c6.28,27.48,29.8,42.56,47.57,62,2.49,2.73,7.17,4.16,11.07,4.81,18.32,3.08,33.52-1.66,44.92-17.5,5.2-7.22,12.93-12.58,18.4-19.64,5.27-6.81,10.18-14.31,13.23-22.28,2.37-6.18,4.77-9.12,11.4-8,2.4.4,4.93.06,8.37.06v25c0,11.25.06,22.49,0,33.73,0,5.17,2.57,8.36,7.48,8.37s7.52-3.2,7.5-8.36c-.05-19.2,0-38.39,0-58.14h22.13Z"/><path class="cls-1" d="M224.64,241.12V292c-2.5.15-4.67.41-6.84.41-33,0-66,.15-98.92-.17A17,17,0,0,1,108.62,288c-15.22-13.86-37.08-13.86-52.31,0a18.39,18.39,0,0,1-10.26,4.23c-7.7.62-15.48,0-23.22.23-5.78.15-8.22-2.37-7.92-8.09.21-4.21,0-8.43,0-13.82h8.29q41.58,0,83.18,0c2.72,0,6,.38,8-.91,2.37-1.48,5.11-4.64,5.08-7s-2.9-5.37-5.28-6.93c-1.82-1.18-4.83-.69-7.3-.7q-41.59,0-83.19,0H15.34V241.12Z"/><path class="cls-1" d="M46.89,36.65c36.57-6.82,72.93-7.32,109.3.15v-2c.33.35.95.71.94,1-.73,22.66-.76,45.39-2.71,67.94-.62,7.06-5.34,14.56-10.09,20.29-8.9,10.74-19.11,20.4-28.93,30.36-4.33,4.39-22.86,4.53-27.22.21-9.05-9-17.9-18.12-26.83-27.2-8.55-8.7-14-19.05-14.33-31.26C46.55,76,46.89,55.76,46.89,36.65Zm48.92,41c-1.71-1.28-2.51-1.86-3.29-2.46-9.73-7.52-20.35-7.31-27.52.54s-6.54,18.6,2,27.4c6.81,7,13.86,13.72,20.64,20.73,4.8,5,9.25,5,14.12.11,12.3-12.44,24.82-24.67,37.05-37.18,8.41-8.61,8.77-19.72,1.29-27.42-7.81-8.05-19.06-7.82-27.9.9C106.58,65.87,101.28,71.84,95.81,77.66Z"/><path class="cls-1" d="M240.29,294.07V178.45c12.88,0,25.74-.06,38.6.11,1.16,0,2.68,1.33,3.4,2.45,9,14,17.86,28.14,27.31,43.09a61.69,61.69,0,0,1-6.31.78c-9.24.07-18.49,0-27.73,0-5.8,0-12.19-.6-12.95,7.59-.52,5.68,3.65,8,13.35,8,10.24,0,20.49-.18,30.72.08,4.8.13,11.51-.66,14,2,5.26,5.83,10.68,12.5,9.5,21.85-.74,5.9,0,12-.21,18s-3.39,9.67-9.82,9.88c-7,.23-12.91-.19-18.89-5.82-14.09-13.26-35.61-11.7-50.24,1.84C248.43,290.74,244.67,291.8,240.29,294.07Zm33.11-31c5.6-.17,11.24-.69,11.38-7.76s-5.28-7.94-10.89-7.94-11.08.49-11.23,7.6S268.05,262.87,273.4,263.1Z"/><path class="cls-1" d="M121.55,308.46h117c2,9.65,4,18.73,6,28.27H115.3C117.29,327.74,119.29,318.66,121.55,308.46Z"/><path class="cls-1" d="M82.18,337.27c-12.39-.12-22.53-10.44-22.19-22.58a22.49,22.49,0,1,1,22.19,22.58Zm15.25-22.06a15,15,0,1,0-15.2,15.1A15.2,15.2,0,0,0,97.43,315.21Z"/><path class="cls-1" d="M277.3,337.27C264.89,337.2,254.72,327,255,314.8a22.49,22.49,0,1,1,22.31,22.47Zm15.13-21.9a15,15,0,1,0-15.36,14.94A15.21,15.21,0,0,0,292.43,315.37Z"/><path class="cls-1" d="M323.43,121.8c-2.78,1.8-5.37,4.64-8.38,5.16-4.76.84-8.05-2.83-7.1-7.15.58-2.63,4.6-6,7.3-6.24s5.47,3.26,8.23,5.1Z"/><path class="cls-1" d="M95.81,77.66c5.47-5.82,10.77-11.79,16.44-17.38,8.84-8.72,20.09-9,27.9-.9,7.48,7.7,7.12,18.81-1.29,27.42-12.23,12.51-24.75,24.74-37.05,37.18-4.87,4.92-9.32,4.85-14.12-.11-6.78-7-13.83-13.75-20.64-20.73-8.59-8.8-9.32-19.44-2-27.4s17.79-8.06,27.52-.54C93.3,75.8,94.1,76.38,95.81,77.66Zm-1.14,32.21c11.54-11.66,22.18-22.21,32.49-33.07,1.39-1.46,1.16-4.47,1.68-6.76-2.32.66-5.22.67-6.86,2.11-5.06,4.43-9.65,9.41-14.42,14.17-11.88,11.87-11.81,11.79-24.82,1-1.45-1.2-4.15-.88-6.27-1.26.48,2.15.3,4.88,1.57,6.34C83.11,98.2,88.63,103.61,94.67,109.87Z"/><path class="cls-1" d="M273.4,263.1c-5.35-.23-10.89-1-10.74-8.1s5.72-7.6,11.23-7.6,11,.84,10.89,7.94S279,262.93,273.4,263.1Z"/><path class="cls-1" d="M97.43,315.21A15,15,0,1,1,82.34,300,15.23,15.23,0,0,1,97.43,315.21Z"/><path class="cls-1" d="M292.43,315.37A15,15,0,1,1,277.49,300,15.25,15.25,0,0,1,292.43,315.37Z"/><path class="cls-1" d="M94.67,109.87c-6-6.26-11.56-11.67-16.63-17.48-1.27-1.46-1.09-4.19-1.57-6.34,2.12.38,4.82.06,6.27,1.26,13,10.8,12.94,10.88,24.82-1,4.77-4.76,9.36-9.74,14.42-14.17,1.64-1.44,4.54-1.45,6.86-2.11-.52,2.29-.29,5.3-1.68,6.76C116.85,87.66,106.21,98.21,94.67,109.87Z"/></svg>