<svg id="Layer_1" data-name="Layer 1" xmlns="http://www.w3.org/2000/svg" viewBox="0 0 260.33 261.91"><defs><style>.cls-1{fill:#fff;}</style></defs><title>location</title><path class="cls-1" d="M-1,257.1q5.1-12.72,10.2-25.43c.44-1.11.49-2.68,1.29-3.26a36.15,36.15,0,0,1,5.61-2.88c.53,1.89,1.94,4.07,1.44,5.64-2.11,6.63-4.8,13.08-7.24,19.61-.46,1.24-.76,2.54-1.26,4.25H251c-.6-1.89-1-3.49-1.61-5-10.44-27.49-21-54.94-31.24-82.5-1.46-3.91-3.39-5-7.4-4.95-14.66.24-29.33.38-44-.05-5.6-.17-8.43,2-10.35,7.66,4,0,7.66.19,11.28,0,3.91-.27,5.53,1.62,6.18,5.17,2.15,11.88,4.42,23.73,6.63,35.6.88,4.68-.35,6.27-5.15,6.28-17.39.05-34.78,0-52.16,0-12.62,0-25.23,0-37.85,0-5.79,0-6.73-1.24-5.64-7.1,2.15-11.53,4.36-23,6.4-34.61.67-3.83,2.43-5.67,6.52-5.36,3.48.27,7,.06,10.82.06-1.62-5.54-4.3-7.83-10-7.67-14.81.44-29.65.28-44.48.06-3.81-.05-5.7,1-7,4.73-5.25,14.55-10.88,29-16.36,43.43-.36.95-.45,2.25-1.13,2.79a49.77,49.77,0,0,1-5.37,3.34c-.64-2-2.31-4.38-1.74-6,6.36-17.58,13.11-35,19.65-52.53,1.2-3.2,3.49-3.66,6.46-3.64,15,.1,30,.07,45,.09h5.75c-1.08-1.92-1.82-3.36-2.68-4.72-7.78-12.4-15.76-24.68-23.35-37.2-26.43-43.54-3.57-98,46-109.87,45.31-10.81,89.8,25.54,88.75,72.34a74.73,74.73,0,0,1-11.89,39q-11.17,17.7-22.33,35.43c-.89,1.4-1.71,2.84-3,5h12.23c12.95,0,25.91.08,38.86-.05,3.36,0,5.25,1,6.49,4.3,12.21,32.46,24.62,64.84,36.73,97.34.71,1.89-.65,4.54-1.05,6.84H-1ZM130.31,9.26C106.42,9.19,85.35,21,73.5,42.1c-12,21.42-12.22,43.59.31,64.63,16.71,28.07,34.61,55.43,52.06,83.05q4.11,6.5,8.15.13C151.64,162,170,134.5,186.55,106,211.48,63.11,179.84,9.42,130.31,9.26ZM87.83,209.05H172.1c-1.83-9.86-3.56-19.34-5.39-28.8-.13-.72-.84-1.87-1.32-1.9-4.42-.21-8.91-.7-13.22,0-1.75.26-3.29,3-4.57,4.9-2.68,3.94-5,8.14-7.7,12.05-5.36,7.7-14.65,7.64-19.94-.13-3.07-4.5-5.83-9.21-8.75-13.81-1.86-2.91-14.69-4.94-17.18-2.69a3.35,3.35,0,0,0-.83,1.78C91.43,189.74,89.69,199.09,87.83,209.05Z"/><path class="cls-1" d="M155.63,247.88H80.44c-6.84,0-8-1.1-6.54-7.82,3.73-17.51-.24-15.3,18.23-15.33,44.16-.07,88.32.07,132.48-.13,5.3,0,8.32,1.52,9.68,6.69.87,3.27,2.4,6.36,3.51,9.57,1.77,5.1.47,7-4.93,7Q194.26,247.9,155.63,247.88Zm-73.56-8.24H228.34c-.24-5.28-2.31-7.26-7.63-7.23-44,.21-88,.12-131.92.12H83.34Z"/><path class="cls-1" d="M52.15,217.18c-4.77,0-9.53.1-14.29,0C33.48,217,32,215,33.57,210.89c4.59-12.4,9.2-24.81,14.16-37.07.67-1.66,3.38-3.38,5.24-3.49,6.77-.42,13.6-.09,20.4-.2,4.31-.06,5.9,1.9,5.11,6q-3.48,18.26-6.94,36.5c-.6,3.17-2.26,4.67-5.62,4.55C61.34,217.06,56.74,217.18,52.15,217.18ZM70,178c-5,0-9.33-.08-13.69.06A3.14,3.14,0,0,0,54,179.49c-3.81,9.69-7.49,19.44-11.31,29.46H64.18C66.13,198.64,68,188.7,70,178Z"/><path class="cls-1" d="M208.05,217.18c-4.59,0-9.19-.15-13.77,0-3.58.15-5.28-1.41-5.91-4.82-2.25-12.17-4.65-24.32-6.94-36.48-.72-3.85.86-5.82,4.9-5.79,6.8.07,13.63-.27,20.4.2,2,.13,4.88,2,5.6,3.74,4.93,12.09,9.44,24.35,14,36.6,1.65,4.47.29,6.38-4.48,6.48C217.23,217.26,212.64,217.18,208.05,217.18Zm-12.29-8.24h21.51c-3.72-9.86-7.18-19.21-10.83-28.48a4.12,4.12,0,0,0-2.78-2.33c-4.35-.26-8.73-.11-13.71-.11Z"/><path class="cls-1" d="M43,247.87c-5.61,0-11.22,0-16.83,0-4.24,0-5.6-2.26-4.42-5.94a89.9,89.9,0,0,1,5.33-13.73,7.58,7.58,0,0,1,5.49-3.35c10-.33,20.07-.23,30.1-.12,4.76,0,6.19,1.83,5.27,6.34-4.22,20.62.07,16.27-19.83,16.79C46.42,247.91,44.71,247.88,43,247.87Zm-11.39-8.14H58.2c.51-2.4.95-4.52,1.52-7.2-7.14,0-13.79.41-20.36-.12C33.64,231.94,31.83,234.54,31.62,239.73Z"/><path class="cls-1" d="M82.07,239.64l1.27-7.11h5.45c44,0,88,.09,131.92-.12,5.32,0,7.39,2,7.63,7.23Z"/><path class="cls-1" d="M172.14,74.21A42.16,42.16,0,1,1,130,32.05,42.36,42.36,0,0,1,172.14,74.21ZM130.22,40A34.23,34.23,0,0,0,95.53,74c-.23,18.72,15.38,34.59,34.2,34.77s34.47-15.36,34.7-34.28A34.23,34.23,0,0,0,130.22,40Z"/><path class="cls-1" d="M103.17,73.75c.22-15,12.19-26.52,27.41-26.36A26.68,26.68,0,0,1,156.8,74.45c-.12,14.93-12.46,27.1-27.17,26.79A27,27,0,0,1,103.17,73.75Zm27.14-18.44A18.91,18.91,0,0,0,110.88,74a19.1,19.1,0,1,0,38.2.15A18.9,18.9,0,0,0,130.31,55.31Z"/></svg>