<svg id="Layer_1" data-name="Layer 1" xmlns="http://www.w3.org/2000/svg" viewBox="0 0 259.19 329.13"><defs><style>.cls-1{fill:#fff;}</style></defs><title>order</title><path class="cls-1" d="M28.05,330.74c-1.89-.86-3.75-1.76-5.65-2.57C9.76,322.72,2.68,313.3,2.66,299.38Q2.54,189.21,2.66,79C2.69,59.12,17,45,37.23,44.5c9.15-.24,18.31,0,28.2,0,0-3.78,0-6.93,0-10.07.09-6.84,2.23-9.17,9.21-9.41,6-.21,12,.23,18-.22a8.21,8.21,0,0,0,5.72-3.42c7.26-12.86,17.92-19.69,32.83-19.73,15.2-.05,26.81,5.9,34.19,19.62A8.16,8.16,0,0,0,171,24.75c5.52.48,11.12.11,16.68.18,9.27.12,11.23,2.14,11.25,11.37,0,2.34,0,4.68,0,8.15,6.16,0,12-.18,17.91,0,6.82.26,13.85,0,20.4,1.52,14.82,3.54,24.45,17.23,24.48,33.66q.11,69.69,0,139.4,0,38.24,0,76.45c0,18.81-6.37,27.81-24,34.06-.54.19-.94.76-1.41,1.16ZM65.43,60.62c-10.43,0-19.85-.13-29.25,0-10.26.19-17.3,7.2-17.31,17.49q-.11,110.84,0,221.66c0,7.41,4,12.48,11.38,14.2a44.48,44.48,0,0,0,10.18,1q91.88.09,183.75,0a47.14,47.14,0,0,0,6.4-.3c10.56-1.5,15-6.54,15-17.09q0-47.87,0-95.73,0-61.35,0-122.71c0-9.7-5.17-17.44-13.72-18.15-10.75-.89-21.63-.22-32.86-.22,0,6.19.1,11.73,0,17.27-.14,6.35-3.15,9.59-9.41,9.61q-57.49.12-115,0c-6.05,0-8.89-3-9.05-9.19C65.32,72.81,65.43,67.07,65.43,60.62ZM182.58,41c-6.81,0-12.78-.05-18.75,0s-9.49-2.18-11.3-8.16c-3.15-10.34-11-16.32-20.47-16.48-9.63-.17-18,5.88-21.3,16.31-2,6.21-5.69,8.53-11.83,8.35-5.67-.16-11.36,0-17.12,0V71.65H182.58Z" transform="translate(-2.59 -1.61)"/><path class="cls-1" d="M65.43,60.62c0,6.45-.11,12.19,0,17.92.16,6.15,3,9.18,9.05,9.19q57.51.12,115,0c6.26,0,9.27-3.26,9.41-9.61.13-5.54,0-11.08,0-17.27,11.23,0,22.11-.67,32.86.22,8.55.71,13.72,8.45,13.72,18.15q.06,61.35,0,122.71,0,47.87,0,95.73c0,10.55-4.42,15.59-15,17.09a47.14,47.14,0,0,1-6.4.3q-91.87,0-183.75,0a44.48,44.48,0,0,1-10.18-1c-7.35-1.72-11.38-6.79-11.38-14.2Q18.8,189,18.87,78.14c0-10.29,7.05-17.3,17.31-17.49C45.58,60.49,55,60.62,65.43,60.62Zm104,132.73c-14.12,0-28.23,0-42.35,0-6.92,0-10.26,2.57-10.45,7.7-.21,5.46,3.26,8.45,10.39,8.46q42.35.1,84.68,0c7.17,0,10.65-3,10.47-8.39-.17-5.11-3.56-7.74-10.4-7.77C197.67,193.31,183.56,193.35,169.45,193.35Zm-.15-46.57c14.33,0,28.65.05,43,0,6.67,0,10.16-2.95,9.91-8.2-.3-6.1-4.45-7.8-9.68-7.81q-43,0-85.94,0c-6.76,0-10,2.95-9.91,8.21s3.44,7.76,10.33,7.79C141.09,146.82,155.19,146.78,169.3,146.78Zm.47,109.45c-14.35,0-28.71,0-43.06,0-6.85,0-10.24,2.68-10,8,.25,6.15,4.31,7.75,9.65,7.75q43.07,0,86.13,0c5.31,0,9.43-1.53,9.72-7.68.25-5.32-3.13-8-10-8C198.06,256.2,183.92,256.23,169.77,256.23ZM66,137.42c-3.44-3.58-6.5-6.83-9.63-10-3.6-3.67-7.79-5.06-11.8-1.14s-3.14,8.19.4,12c5,5.3,10.09,10.46,15.24,15.59,3.4,3.4,7.45,3.71,10.9.55q15.8-14.53,31.14-29.58c3.21-3.13,3.07-7.07.12-10.37S95.68,110.6,92,113a38.64,38.64,0,0,0-5.28,4.65C79.87,124.13,73.1,130.61,66,137.42Zm.25,62.47c-3.6-3.57-6.68-6.53-9.66-9.58-3.58-3.66-7.5-5.11-11.86-1.57-3.64,2.94-3.4,8.2.54,12.43,4.66,5,9.53,9.83,14.29,14.74,4,4.13,8.3,4.29,12.41.47C82,207.06,92,197.76,101.55,188c1.87-1.92,2.65-6.46,1.82-9.13-1.69-5.39-8.44-6.12-13.23-1.71C82.13,184.5,74.35,192.13,66.22,199.89Zm.15,62.48c-3.8-3.61-7.1-6.66-10.31-9.8-3.55-3.5-7.64-4.45-11.37-1-3.95,3.66-3.41,8.06.2,11.9,4.54,4.83,9.19,9.57,13.86,14.28,5.5,5.55,8.43,5.72,14.17.4,9.26-8.57,18.38-17.3,27.5-26,4.87-4.67,5.33-9,1.54-12.74s-7.94-3.21-12.85,1.42C81.48,248,73.91,255.21,66.37,262.37Z" transform="translate(-2.59 -1.61)"/><path class="cls-1" d="M169.45,193.35c14.11,0,28.22,0,42.34,0,6.84,0,10.23,2.66,10.4,7.77.18,5.43-3.3,8.38-10.47,8.39q-42.34.09-84.68,0c-7.13,0-10.6-3-10.39-8.46.19-5.13,3.53-7.67,10.45-7.7C141.22,193.31,155.33,193.35,169.45,193.35Z" transform="translate(-2.59 -1.61)"/><path class="cls-1" d="M169.3,146.78c-14.11,0-28.21,0-42.32,0-6.89,0-10.21-2.61-10.33-7.79s3.15-8.19,9.91-8.21q43-.12,85.94,0c5.23,0,9.38,1.71,9.68,7.81.25,5.25-3.24,8.16-9.91,8.2C198,146.83,183.63,146.78,169.3,146.78Z" transform="translate(-2.59 -1.61)"/><path class="cls-1" d="M169.77,256.23c14.15,0,28.29,0,42.43,0,6.84,0,10.22,2.72,10,8-.29,6.15-4.41,7.68-9.72,7.68q-43.06,0-86.13,0c-5.34,0-9.4-1.6-9.65-7.75-.2-5.29,3.19-8,10-8C141.06,256.2,155.42,256.23,169.77,256.23Z" transform="translate(-2.59 -1.61)"/><path class="cls-1" d="M66,137.42c7.13-6.81,13.9-13.29,20.7-19.74A38.64,38.64,0,0,1,92,113c3.73-2.43,7.49-1.89,10.39,1.37s3.09,7.24-.12,10.37q-15.37,15-31.14,29.58c-3.45,3.16-7.5,2.85-10.9-.55-5.15-5.13-10.26-10.29-15.24-15.59-3.54-3.76-4.26-8.17-.4-12s8.2-2.53,11.8,1.14C59.47,130.59,62.53,133.84,66,137.42Z" transform="translate(-2.59 -1.61)"/><path class="cls-1" d="M66.22,199.89c8.13-7.76,15.91-15.39,23.92-22.77,4.79-4.41,11.54-3.68,13.23,1.71.83,2.67,0,7.21-1.82,9.13C92,197.76,82,207.06,71.94,216.38c-4.11,3.82-8.41,3.66-12.41-.47-4.76-4.91-9.63-9.73-14.29-14.74-3.94-4.23-4.18-9.49-.54-12.43,4.36-3.54,8.28-2.09,11.86,1.57C59.54,193.36,62.62,196.32,66.22,199.89Z" transform="translate(-2.59 -1.61)"/><path class="cls-1" d="M66.37,262.37c7.54-7.16,15.11-14.39,22.74-21.58,4.91-4.63,9.14-5.06,12.85-1.42s3.33,8.07-1.54,12.74c-9.12,8.73-18.24,17.46-27.5,26-5.74,5.32-8.67,5.15-14.17-.4-4.67-4.71-9.32-9.45-13.86-14.28-3.61-3.84-4.15-8.24-.2-11.9,3.73-3.44,7.82-2.49,11.37,1C59.27,255.71,62.57,258.76,66.37,262.37Z" transform="translate(-2.59 -1.61)"/></svg>